<?xml version="1.0" encoding="UTF-8"?>
<svg width="12px" height="14px" viewBox="0 0 12 14" version="1.1" xmlns="http://www.w3.org/2000/svg" xmlns:xlink="http://www.w3.org/1999/xlink">
    <!-- Generator: Sketch 54.1 (76490) - https://sketchapp.com -->
    <title>ic/24/chevrons-downvector</title>
    <desc>Created with Sketch.</desc>
    <defs>
        <path d="M16.5857864,12 L12.2928932,7.70710678 C11.9023689,7.31658249 11.9023689,6.68341751 12.2928932,6.29289322 C12.6834175,5.90236893 13.3165825,5.90236893 13.7071068,6.29289322 L18.7071068,11.2928932 C19.0976311,11.6834175 19.0976311,12.3165825 18.7071068,12.7071068 L13.7071068,17.7071068 C13.3165825,18.0976311 12.6834175,18.0976311 12.2928932,17.7071068 C11.9023689,17.3165825 11.9023689,16.6834175 12.2928932,16.2928932 L16.5857864,12 Z M5.29289322,16.2928932 L9.58578644,12 L5.29289322,7.70710678 C4.90236893,7.31658249 4.90236893,6.68341751 5.29289322,6.29289322 C5.68341751,5.90236893 6.31658249,5.90236893 6.70710678,6.29289322 L11.7071068,11.2928932 C12.0976311,11.6834175 12.0976311,12.3165825 11.7071068,12.7071068 L6.70710678,17.7071068 C6.31658249,18.0976311 5.68341751,18.0976311 5.29289322,17.7071068 C4.90236893,17.3165825 4.90236893,16.6834175 5.29289322,16.2928932 Z" id="path-1"></path>
    </defs>
    <g id="Workspace" stroke="none" stroke-width="1" fill="none" fill-rule="evenodd">
        <g id="1-0-0-Authors-List" transform="translate(-954.000000, -849.000000)">
            <g id="TopNav">
                <g id="ic/24/chevrons-down" transform="translate(960.000000, 856.000000) rotate(-270.000000) translate(-960.000000, -856.000000) translate(948.000000, 844.000000)">
                    <rect id="Rectangle" x="0" y="0" width="24" height="24"></rect>
                    <mask id="mask-2" fill="white">
                        <use xlink:href="#path-1"></use>
                    </mask>
                    <use id="Combined-Shape" fill="#FFFFFF" fill-rule="nonzero" xlink:href="#path-1"></use>
                </g>
            </g>
        </g>
    </g>
</svg>