<?xml version="1.0" encoding="UTF-8"?>
<svg width="10px" height="10px" viewBox="0 0 10 10" version="1.1" xmlns="http://www.w3.org/2000/svg" xmlns:xlink="http://www.w3.org/1999/xlink">
    <!-- Generator: sketchtool 54.1 (76490) - https://sketchapp.com -->
    <title>37AE2AAA-AEC3-4316-A95D-B1F6139AEC8Fvector</title>
    <desc>Created with sketchtool.</desc>
    <g id="Workspace" stroke="none" stroke-width="1" fill="none" fill-rule="evenodd">
        <g id="1-0-0-Authors-List" transform="translate(-394.000000, -1841.000000)">
            <g id="Content" transform="translate(375.000000, 922.000000)">
                <g id="line-6" transform="translate(0.000000, 852.000000)">
                    <g id="card">
                        <g id="nam+tel" transform="translate(16.000000, 39.000000)">
                            <g id="telephone" transform="translate(0.000000, 25.000000)">
                                <g id="ic/16/phone-copy-5">
                                    <rect id="Rectangle" x="0" y="0" width="16" height="16"></rect>
                                    <path d="M12.0860015,10.2731857 C12.0918962,10.0299518 11.9229447,9.83054983 11.6973282,9.79870209 C11.2245567,9.73634833 10.7603566,9.62071129 10.3125518,9.45361073 C10.1455996,9.39085362 9.95739086,9.43099293 9.83238183,9.55460069 L9.25217528,10.1348072 C9.10675221,10.2802303 8.8820869,10.3105599 8.70330842,10.2089036 C7.48806468,9.51789693 6.48186093,8.51169319 5.79085426,7.29644944 C5.68919801,7.11767097 5.71952756,6.89300565 5.86495062,6.74758259 L6.44335464,6.16918868 C6.56876493,6.04236701 6.60890425,5.85415823 6.54576112,5.68617539 C6.37904658,5.23940125 6.26340954,4.77520113 6.20162961,4.30663001 C6.1695357,4.07956537 5.97408448,3.91147733 5.74027784,3.91375636 L4.3701414,3.91375616 C4.24190073,3.91387693 4.11961542,3.96789119 4.03315693,4.06260451 C3.94669844,4.15731783 3.9040284,4.28400842 3.91486977,4.40460216 C4.05725186,5.74538406 4.51346338,7.03377294 5.24870756,8.16876214 C5.9141638,9.21599643 6.80203566,10.1038683 7.85282415,10.7716061 C8.97932547,11.5021382 10.261479,11.9582461 11.5880327,12.1024623 C11.7161496,12.1140409 11.8432112,12.0710698 11.9380019,11.9841058 C12.0327926,11.8971419 12.0865274,11.7742447 12.0860015,11.6437524 L12.0860015,10.2731857 Z M12.9997089,11.641898 C13.0012753,12.027812 12.8400707,12.3965035 12.5556986,12.6573953 C12.2713265,12.9182871 11.8901419,13.0472004 11.4975613,13.0116457 C10.020704,12.8511731 8.60207853,12.3465172 7.35922706,11.5405093 C6.19877825,10.8031119 5.21492024,9.81925384 4.47968549,8.66217578 C3.66857513,7.41010832 3.16380464,5.98458385 3.0055671,4.49396312 C2.97094194,4.11080225 3.09895204,3.73073047 3.35832751,3.4465905 C3.61770299,3.16245054 3.98455893,3.00040775 4.36971117,3.00004525 L5.73578162,3.00006738 C6.42371293,2.99329667 7.01006656,3.49756079 7.10692212,4.18295508 C7.16026522,4.58740698 7.2591917,4.98452616 7.40142853,5.36570687 C7.58969985,5.86656335 7.46928191,6.43118969 7.0912485,6.81346736 L6.76364077,7.14107508 C7.30083711,7.98381312 8.01594716,8.69892285 8.85868547,9.2361188 L9.18810316,8.90670683 C9.56856817,8.53047596 10.1331945,8.41005801 10.6330203,8.59794332 C11.0152317,8.74056617 11.4123509,8.83949265 11.8208847,8.89339285 C12.5079235,8.99031724 13.0138074,9.5852472 12.9997126,10.2782919 L12.9997089,11.641898 Z" id="Shape" fill="#515166" fill-rule="nonzero"></path>
                                </g>
                            </g>
                        </g>
                    </g>
                </g>
            </g>
        </g>
    </g>
</svg>