<?xml version="1.0" encoding="UTF-8"?>
<svg width="16px" height="14px" viewBox="0 0 16 14" version="1.1" xmlns="http://www.w3.org/2000/svg" xmlns:xlink="http://www.w3.org/1999/xlink">
    <!-- Generator: sketchtool 54.1 (76490) - https://sketchapp.com -->
    <title>EABFEBBA-914B-4656-9271-CC2DFF1EE27Fvector</title>
    <desc>Created with sketchtool.</desc>
    <g id="Workspace" stroke="none" stroke-width="1" fill="none" fill-rule="evenodd">
        <g id="1-1-0-Authors-Details" transform="translate(-379.000000, -106.000000)" fill="#8E8E9D" fill-rule="nonzero">
            <g id="Content" transform="translate(0.000000, 71.000000)">
                <g id="top">
                    <g id="Back" transform="translate(375.000000, 30.000000)">
                        <g id="ic/24/arrow-back">
                            <path d="M20,12 L20,12 C20,12.5522847 19.5522847,13 19,13 L5,13 C4.44771525,13 4,12.5522847 4,12 C4,11.4477153 4.44771525,11 5,11 L19,11 C19.5522847,11 20,11.4477153 20,12 Z" id="Shape"></path>
                            <path d="M6.43547059,12.0085284 L11.8183387,17.2977267 C12.2122755,17.6848084 12.2178326,18.317949 11.8307509,18.7118858 C11.4436692,19.1058226 10.8105286,19.1113797 10.4165918,18.724298 L4.29912656,12.7132857 C3.89696499,12.3181223 3.90082279,11.6687939 4.3076513,11.2784369 L10.4251165,5.40865331 C10.8236248,5.02627968 11.4566547,5.0393594 11.8390283,5.43786768 C12.2214019,5.83637596 12.2083222,6.46940583 11.8098139,6.85177946 L6.43547059,12.0085284 Z" id="Shape"></path>
                        </g>
                    </g>
                </g>
            </g>
        </g>
    </g>
</svg>