<?xml version="1.0" encoding="UTF-8"?>
<svg width="10px" height="10px" viewBox="0 0 10 10" version="1.1" xmlns="http://www.w3.org/2000/svg" xmlns:xlink="http://www.w3.org/1999/xlink">
    <!-- Generator: Sketch 54.1 (76490) - https://sketchapp.com -->
    <title>ic/16/navigation copy 14vector</title>
    <desc>Created with Sketch.</desc>
    <g id="Workspace" stroke="none" stroke-width="1" fill="none" fill-rule="evenodd">
        <g id="1-0-0-Authors-List" transform="translate(-1490.000000, -1635.000000)">
            <g id="Content" transform="translate(375.000000, 922.000000)">
                <g id="line-5" transform="translate(0.000000, 694.000000)">
                    <g id="card" transform="translate(800.000000, 0.000000)">
                        <g id="city" transform="translate(312.000000, 16.000000)">
                            <g id="ic/16/navigation-copy-14">
                                <rect id="Rectangle" x="0" y="0" width="16" height="16"></rect>
                                <path d="M4.88228343,7.62357529 L7.40046551,8.25312081 C7.57104513,8.29576572 7.70423428,8.42895487 7.74687919,8.59953449 L8.37642471,11.1177166 L11.5211519,4.47884815 L4.88228343,7.62357529 Z M6.89239213,9.10760787 L3.36072262,8.2246905 C2.92702438,8.11626594 2.86836961,7.52391022 3.27238191,7.33253597 L12.318283,3.04763547 C12.7225753,2.85612856 13.1438714,3.27742467 12.9523645,3.68171703 L8.66746403,12.7276181 C8.47608978,13.1316304 7.88373406,13.0729756 7.7753095,12.6392774 L6.89239213,9.10760787 Z" id="Shape" fill="#515166" fill-rule="nonzero"></path>
                            </g>
                        </g>
                    </g>
                </g>
            </g>
        </g>
    </g>
</svg>