<?xml version="1.0" encoding="UTF-8"?>
<svg width="114px" height="20px" viewBox="0 0 114 20" version="1.1" xmlns="http://www.w3.org/2000/svg" xmlns:xlink="http://www.w3.org/1999/xlink">
    <!-- Generator: sketchtool 54.1 (76490) - https://sketchapp.com -->
    <title>E449A87D-5F1D-4607-898E-EB9ED5FE0A95vector</title>
    <desc>Created with sketchtool.</desc>
    <g id="Workspace" stroke="none" stroke-width="1" fill="none" fill-rule="evenodd">
        <g id="1-1-0-Authors-Details" transform="translate(-375.000000, -1463.000000)" fill-rule="nonzero">
            <g id="Footer" transform="translate(0.000000, 1385.000000)">
                <g id="logo" transform="translate(375.000000, 78.000000)">
                    <polygon id="Path" fill="#33A9FD" opacity="0.7" points="23.5684892 19.6617647 17.1743748 19.6617647 11.6224916 0.142156863 18.0149769 0.142156863"></polygon>
                    <polygon id="Path" fill="#33A9FD" opacity="0.7" points="12.4549483 19.6617647 6.06083397 19.6617647 0.502434461 0.14379085 6.89491971 0.14379085"></polygon>
                    <polygon id="Path" fill="#FFFFFF" opacity="0.5" points="17.3421694 19.6617647 17.1743748 19.6617647 11.6192335 0.14379085 11.6192335 0.14379085"></polygon>
                    <polygon id="Path" fill="#FFFFFF" opacity="0.5" points="6.26446818 19.6617647 6.06083397 19.6617647 0.502434461 0.14379085 0.54153223 0.14379085"></polygon>
                    <polygon id="Path" fill="#33A9FD" points="12.4549483 19.6552288 6.06083397 19.6552288 11.6208625 0.142156863 18.0149769 0.142156863"></polygon>
                    <path d="M23.5750054,19.6617647 L17.1808911,19.6617647 L20.979891,6.31045752 C22.0174224,2.66110152 25.3418352,0.144266933 29.1252596,0.14379085 L29.1252596,0.14379085 L23.5750054,19.6617647 Z" id="Path" fill="#33A9FD"></path>
                    <path d="M30.4285186,19.6552288 C33.9847865,19.6552288 36.4951891,18.2581699 38.2676213,16.1339869 C38.3242449,16.0673199 38.3518206,15.9806463 38.344164,15.8934046 C38.3365074,15.8061628 38.2942591,15.7256543 38.2268944,15.6699346 L35.102331,13.0735294 C34.9798619,12.9670496 34.7979828,12.9670496 34.6755137,13.0735294 C33.4178688,14.2434641 32.2319032,14.7696078 30.7657368,14.7696078 C29.5406734,14.7696078 28.5208732,14.3888889 27.7894191,13.6405229 L26.2906713,18.9003268 C27.6107187,19.4094054 29.0142959,19.6654717 30.4285186,19.6552288 L30.4285186,19.6552288 Z" id="Path" fill="#33A9FD" opacity="0.7"></path>
                    <path d="M30.2411751,5.05228758 C31.8181184,5.21568627 32.8721291,6.44934641 33.0936831,8.41013072 L29.288167,8.41013072 L28.338417,11.6781047 L38.8508296,11.6781046 C39.0258031,11.678245 39.1696455,11.5397398 39.1766444,11.3643791 C39.189677,11.0490196 39.189677,10.6584967 39.189677,10.3594771 C39.189677,5.4248366 36.7851642,1.06862745 31.5998226,0.269607843 L30.2411751,5.05228758 Z" id="Path" fill="#33A9FD" opacity="0.7"></path>
                    <path d="M43.0163711,16.5866013 L43.9791537,15.2254902 C44.0295481,15.1541469 44.1063439,15.1060339 44.1923706,15.0919088 C44.2783972,15.0777837 44.3664795,15.0988245 44.4369234,15.1503268 C46.2810349,16.4689542 48.3010863,17.2189542 50.2901853,17.2189542 C52.4079811,17.2189542 53.9490848,16.120915 53.9490848,14.4068627 L53.9490848,14.3464052 C53.9490848,12.5620915 51.8622414,11.875817 49.5375532,11.2254902 C46.7681279,10.4362745 43.6908076,9.4754902 43.6908076,6.21732026 L43.6908076,6.14869281 C43.6908076,3.09640523 46.2207591,1.07352941 49.7086059,1.07352941 C51.7579807,1.07352941 54.0240222,1.75653595 55.8013416,2.85620915 C55.9500451,2.95193489 55.995575,3.14910106 55.9039733,3.30065359 L55.0438224,4.73039216 C54.9997369,4.80536771 54.927652,4.85960465 54.8435518,4.88107653 C54.7594517,4.90254841 54.6702863,4.88948077 54.5958271,4.84477124 C53.0221419,3.88398693 51.2545969,3.30228758 49.6401848,3.30228758 C47.5549705,3.30228758 46.2191301,4.4003268 46.2191301,5.87418301 L46.2191301,5.94281046 C46.2191301,7.62418301 48.4086051,8.27614379 50.7675039,8.99509804 C53.5027186,9.8120915 56.4431967,10.8823529 56.4431967,14.0718954 L56.4431967,14.1405229 C56.4431967,17.5 53.6737714,19.4558824 50.151714,19.4558824 C47.6001271,19.4126008 45.1262867,18.5679754 43.0782759,17.0408497 C42.9374461,16.9317861 42.9098885,16.7295721 43.0163711,16.5866013 Z" id="Path" fill="#33A9FD"></path>
                    <path d="M59.4977099,13.9607843 L59.4977099,13.8921569 C59.4977099,10.0849673 62.5750301,8.09640523 67.0533538,8.09640523 C68.8822602,8.07915615 70.7036755,8.33298522 72.4586203,8.8496732 L72.4586203,8.30065359 C72.4586203,5.14542484 70.5428296,3.49836601 67.2260356,3.49836601 C65.2711471,3.49836601 63.7104945,3.94934641 62.1759071,4.62581699 C62.0938027,4.66085116 62.0009662,4.66057938 61.9190672,4.6250651 C61.8371681,4.58955082 61.7733733,4.52190184 61.7425735,4.4379085 L61.178914,2.89215686 C61.1205874,2.73074504 61.1967325,2.55158559 61.3532248,2.48202614 C63.2038526,1.66503268 65.0284151,1.09803922 67.5029781,1.09803922 C69.9775411,1.09803922 71.9487203,1.78431373 73.2128815,3.05882353 C74.4444612,4.29411765 75.0602511,6 75.0602511,8.27287582 L75.0602511,18.7826797 C75.0602511,18.963165 74.9143788,19.1094771 74.7344363,19.1094771 L72.7844351,19.1094771 C72.6044926,19.1094771 72.4586203,18.963165 72.4586203,18.7826797 L72.4586203,16.4705882 C71.2270406,18.0473856 69.2102474,19.4885621 66.1052329,19.4885621 C62.7802934,19.4820261 59.4977099,17.5947712 59.4977099,13.9607843 Z M72.4912018,12.5882353 L72.4912018,11.1895425 C72.4915148,11.0427798 72.3942445,10.9138087 72.253357,10.874183 C70.6506041,10.4189259 68.9928207,10.1879838 67.3270381,10.1879085 C64.0444546,10.1879085 62.1645035,11.627451 62.1645035,13.754902 L62.1645035,13.8235294 C62.1645035,16.0522876 64.2155074,17.3562092 66.6102457,17.3562092 C69.8521024,17.3562092 72.4912018,15.4003268 72.4912018,12.5882353 L72.4912018,12.5882353 Z" id="Shape" fill="#33A9FD"></path>
                    <path d="M77.8997265,1.37418301 L80.0908307,1.37418301 C80.2239489,1.373786 80.3439194,1.45465456 80.3938384,1.57843137 L86.2585038,16.0866013 L92.1590087,1.57679739 C92.2092165,1.4542143 92.3282617,1.37418122 92.4603874,1.37418301 L94.5781832,1.37418301 C94.6875588,1.37458653 94.789435,1.43000913 94.8494235,1.52174288 C94.909412,1.61347662 94.9195081,1.72928069 94.8763037,1.83006536 L87.4737927,19.0441176 C87.4223038,19.1642308 87.3043951,19.2420025 87.1740432,19.2418301 L85.2778014,19.2418301 C85.1474495,19.2420025 85.0295408,19.1642308 84.9780518,19.0441176 L77.599977,1.83006536 C77.5566594,1.72901481 77.5669301,1.61288596 77.6273059,1.52106168 C77.6876818,1.4292374 77.7900621,1.37403789 77.8997265,1.37418301 Z" id="Path" fill="#33A9FD"></path>
                    <path d="M106.017539,17.2189542 C108.324307,17.2189542 109.982704,16.3202614 111.373933,14.9313725 C111.495844,14.8068242 111.693816,14.8003492 111.823558,14.9166667 L112.986716,15.9624183 C113.051508,16.0206726 113.090377,16.1025016 113.094661,16.189671 C113.098946,16.2768404 113.068289,16.362107 113.009523,16.4264706 C111.27456,18.2810458 109.161651,19.5098039 105.949118,19.5098039 C101.094478,19.5098039 97.1276836,15.7712418 97.1276836,10.25 C97.1276836,5.10620915 100.711646,0.990196078 105.598867,0.990196078 C110.831452,0.990196078 113.840351,5.1748366 113.840351,10.3872549 C113.840351,10.5604575 113.840351,10.753268 113.827318,11.001634 C113.819472,11.1763517 113.675872,11.3139027 113.501503,11.3137255 L99.8009935,11.3137255 C100.17568,15.0571895 102.910895,17.2189542 106.017539,17.2189542 Z M111.181702,9.19281046 C110.873808,5.96895425 109.026438,3.2254902 105.54022,3.2254902 C102.497111,3.2254902 100.164277,5.7630719 99.7961063,9.19281046 L111.181702,9.19281046 Z" id="Shape" fill="#33A9FD"></path>
                    <polygon id="Path" fill="#FFFFFF" opacity="0.2" points="26.4356589 18.9640523 27.9148578 13.7712418 27.7894191 13.6486928 26.2906713 18.9084967"></polygon>
                    <polygon id="Path" fill="#FFFFFF" opacity="0.2" points="30.3926789 5.07352941 31.7545846 0.295751634 31.5998226 0.269607843 30.2411751 5.05228758"></polygon>
                    <polygon id="Path" fill="#FFFFFF" opacity="0.2" points="28.5013244 11.6781046 29.4510743 8.41013072 29.288167 8.41013072 28.338417 11.6781046"></polygon>
                </g>
            </g>
        </g>
    </g>
</svg>