<svg width="130px" height="23px" viewBox="0 0 130 23" version="1.1" xmlns="http://www.w3.org/2000/svg" xmlns:xlink="http://www.w3.org/1999/xlink">
    <!-- Generator: Sketch 47.1 (45422) - http://www.bohemiancoding.com/sketch -->
    <title>logo/WeSave@3x</title>
    <desc>Created with Sketch.</desc>
    <defs>
        <polygon id="path-1" points="13.7818498 22.0679816 6.46488826 22.0679816 0.102442682 0.0497327189 7.41940424 0.0497327189"></polygon>
        <filter x="-32.3%" y="-9.1%" width="164.6%" height="118.2%" filterUnits="objectBoundingBox" id="filter-3">
            <feGaussianBlur stdDeviation="0.743225806" in="SourceGraphic"></feGaussianBlur>
        </filter>
        <polygon id="path-4" points="13.8297061 22.1669862 6.51274456 22.1669862 0.150298981 0.0471705069 7.46726054 0.0471705069"></polygon>
        <filter x="-32.3%" y="-9.6%" width="164.6%" height="119.2%" filterUnits="objectBoundingBox" id="filter-6">
            <feGaussianBlur stdDeviation="0.743225806" in="SourceGraphic"></feGaussianBlur>
        </filter>
        <filter x="-32.3%" y="-9.6%" width="164.6%" height="119.2%" filterUnits="objectBoundingBox" id="filter-7">
            <feGaussianBlur stdDeviation="0.743225806" in="SourceGraphic"></feGaussianBlur>
        </filter>
    </defs>
    <g id="1---HomePage" stroke="none" stroke-width="1" fill="none" fill-rule="evenodd">
        <g id="1-0-0-HomePage" transform="translate(-135.000000, -62.000000)">
            <g id="TopNav" transform="translate(0.000000, 32.000000)">
                <g id="Content" transform="translate(135.000000, 22.000000)">
                    <g id="logo/WeSave" transform="translate(0.000000, 8.000000)">
                        <g id="Group-15" transform="translate(0.000000, 0.184332)">
                            <g id="Image-10" transform="translate(0.005249, 0.000000)">
                                <mask id="mask-2" fill="white">
                                    <use xlink:href="#path-1"></use>
                                </mask>
                                <use id="Mask" fill="#33A9FD" opacity="0.600000024" xlink:href="#path-1"></use>
                                <polygon id="Rectangle-8-Copy" fill="#33A9FD" opacity="0.2" filter="url(#filter-3)" mask="url(#mask-2)" transform="translate(9.437077, 15.402135) rotate(-178.000000) translate(-9.437077, -15.402135) " points="5.98814236 5.9190897 12.8860117 3.15411274 10.880497 27.6501565 5.98814236 21.4029607"></polygon>
                            </g>
                            <g id="Image-11-+-Image-12-Mask" transform="translate(12.682415, 0.000000)">
                                <mask id="mask-5" fill="white">
                                    <use xlink:href="#path-4"></use>
                                </mask>
                                <use id="Mask" fill="#33A9FD" opacity="0.6" xlink:href="#path-4"></use>
                                <polygon id="Rectangle-8" fill="#33A9FD" opacity="0.2" filter="url(#filter-6)" mask="url(#mask-5)" points="-0.372857805 -1.33226763e-15 6.52501158 -2.76497696 3.91500695 20.4608295 -0.372857805 15.483871"></polygon>
                                <polygon id="Rectangle-8-Copy" fill="#33A9FD" opacity="0.2" filter="url(#filter-7)" mask="url(#mask-5)" transform="translate(9.973946, 17.142857) rotate(-176.000000) translate(-9.973946, -17.142857) " points="6.52501158 8.29493088 13.422881 5.52995392 10.8128763 28.7557604 6.52501158 23.7788018"></polygon>
                            </g>
                            <polygon id="Fill-13" fill="#33A9FD" opacity="0.6" points="19.3799662 22.0679816 19.147303 22.0679816 12.7848574 0.0497327189 12.8310917 0.0497327189"></polygon>
                        </g>
                        <polygon id="Fill-16" fill="#33A9FD" points="13.7870992 22.1197972 6.4701376 22.1197972 12.8327696 0.184313364 20.1495447 0.184313364"></polygon>
                        <g id="Group-95" transform="translate(0.005249, 0.137143)" fill="#33A9FD">
                            <path d="M26.5068715,22.0679816 L19.1899099,22.0679816 L23.5424655,7.00549309 C24.7322547,2.88825806 28.5382008,0.0497327189 32.8689442,0.0497327189 L32.869317,0.0497327189 L26.5068715,22.0679816 Z" id="Fill-17"></path>
                            <g id="Group-21" transform="translate(29.455767, 14.377880)" opacity="0.599999964">
                                <path d="M4.88797939,7.68239631 C8.95828161,7.68239631 11.8322696,6.10580645 13.8594975,3.71078341 C13.993167,3.55281106 13.9745241,3.31815668 13.8140088,3.18672811 L10.2377432,0.256958525 C10.0951251,0.140092166 9.8857654,0.142857143 9.74985873,0.267281106 C8.30969546,1.58635945 6.9534252,2.1797235 5.27985294,2.1797235 C3.87902617,2.1797235 2.71067624,1.75023041 1.87472904,0.90562212 L0.159955998,6.84 C1.57364636,7.38709677 3.16444419,7.68239631 4.88797939,7.68239631" id="Fill-19"></path>
                            </g>
                            <path d="M34.1358777,5.58728111 C35.9412552,5.77695853 37.1457723,7.16165899 37.4008071,9.37364055 L33.0450822,9.37364055 L31.9589474,13.0602765 L43.9893909,13.0602765 C44.1896156,13.0602765 44.353673,12.9045161 44.3620623,12.7067281 C44.377163,12.3507834 44.377163,11.9118894 44.377163,11.5730876 C44.377163,6.00663594 41.6250996,1.09235023 35.6897626,0.191336406 L34.1358777,5.58728111 Z" id="Fill-22" opacity="0.599999964"></path>
                            <path d="M48.7551102,18.5988571 L49.856905,17.0624516 C49.9771517,16.894894 50.2114928,16.8589493 50.3807703,16.9783963 C52.490959,18.4663226 54.8030503,19.3111152 57.0795336,19.3111152 C59.5057193,19.3111152 61.2663539,18.0731429 61.2663539,16.1385806 L61.2663539,16.0611613 C61.2663539,14.0493641 58.8795046,13.2757235 56.2187913,12.5406083 C53.0493136,11.6508387 49.527858,10.5675207 49.527858,6.89212903 L49.527858,6.81470968 C49.527858,3.37139171 52.4232853,1.08881106 56.4145417,1.08881106 C58.7600037,1.08881106 61.3534162,1.85931797 63.3858641,3.10042396 C63.5579379,3.20567742 63.6090195,3.43056221 63.5044328,3.60199078 L62.5204611,5.21434101 C62.4138238,5.38890323 62.1835841,5.4484424 62.0074088,5.34245161 C60.2061327,4.25913364 58.1839384,3.60346544 56.3362415,3.60346544 C53.9493923,3.60346544 52.4232853,4.84162212 52.4232853,6.50521659 L52.4232853,6.58263594 C52.4232853,8.47830415 54.9275848,9.21341935 57.6274481,10.0257696 C60.7577758,10.9542488 64.1228175,12.1536959 64.1228175,15.7516682 L64.1228175,15.8290876 C64.1228175,19.6206083 60.9533397,21.8257696 56.9231197,21.8257696 C54.1445834,21.8257696 51.0776415,20.7925899 48.8291225,19.1022673 C48.6706579,18.9833733 48.6400836,18.7594101 48.7551102,18.5988571" id="Fill-24"></path>
                            <path d="M82.4854678,14.0881475 L82.4854678,12.5097143 C82.4854678,12.3449217 82.3752883,12.1991152 82.2145866,12.1550599 C80.7636105,11.7563502 78.89522,11.3799447 76.5769766,11.3799447 C72.8206207,11.3799447 70.6684854,13.0048295 70.6684854,15.4035392 L70.6684854,15.4809585 C70.6684854,17.9956129 73.016371,19.4658433 75.755198,19.4658433 C79.4725903,19.4658433 82.4854678,17.2604977 82.4854678,14.0881475 M67.6166443,15.6356129 L67.6166443,15.5583779 C67.6166443,11.2638157 71.1380998,9.0199447 76.2639625,9.0199447 C78.8463756,9.0199447 80.6463467,9.36814747 82.4463177,9.87118894 L82.4463177,9.25201843 C82.4463177,5.69275576 80.2550324,3.8356129 76.4597128,3.8356129 C74.2249896,3.8356129 72.4363907,4.34436866 70.676129,5.1075023 C70.4801922,5.19247926 70.2523761,5.09386175 70.1791095,4.89515207 L69.535557,3.15229493 C69.4684426,2.97054378 69.5547591,2.76722581 69.7335445,2.68870046 C71.8528682,1.75929954 73.9399398,1.12741014 76.7725405,1.12741014 C79.6290042,1.12741014 81.8594396,1.90123502 83.30706,3.33275576 C84.7157168,4.72556682 85.4200452,6.6599447 85.4200452,9.21330876 L85.4200452,21.0702673 C85.4200452,21.2737696 85.2531913,21.4389309 85.0471874,21.4389309 L82.8191755,21.4389309 C82.6131716,21.4389309 82.4463177,21.2737696 82.4463177,21.0702673 L82.4463177,18.4599447 C81.037661,20.2396682 78.7291119,21.864553 75.1683198,21.864553 C71.3730002,21.864553 67.6166443,19.7366267 67.6166443,15.6356129" id="Fill-26"></path>
                            <path d="M88.6749074,1.43703226 L91.1836811,1.43703226 C91.3354342,1.43703226 91.4720866,1.52809217 91.5291339,1.66707834 L98.2429979,18.0344516 L104.995826,1.66652535 C105.053059,1.5277235 105.189525,1.43703226 105.341092,1.43703226 L107.771193,1.43703226 C108.039277,1.43703226 108.219741,1.708553 108.113476,1.95187097 L99.6315204,21.3712258 C99.5724224,21.5061567 99.4378208,21.5937143 99.2890505,21.5937143 L97.1192045,21.5937143 C96.9702478,21.5937143 96.8354597,21.5059724 96.7765482,21.3706728 L88.3324375,1.95131797 C88.2265459,1.708 88.407009,1.43703226 88.6749074,1.43703226" id="Fill-28"></path>
                            <path d="M126.767962,10.2579539 C126.415612,6.62127189 124.302813,3.52615668 120.311743,3.52615668 C116.829251,3.52615668 114.168538,6.38919816 113.738073,10.2579539 L126.767962,10.2579539 Z M120.859471,19.3110415 C123.498745,19.3110415 125.396405,18.2985069 126.988508,16.7377696 C127.129821,16.5993364 127.354095,16.5901198 127.502306,16.7213641 L128.834527,17.9014562 C128.989263,18.0384147 129.002686,18.2756498 128.860627,18.4253272 C126.874413,20.5167558 124.45699,21.9031152 120.781357,21.9031152 C115.22503,21.9031152 110.686046,17.6861567 110.686046,11.4572166 C110.686046,5.65408295 114.794566,1.0115023 120.389857,1.0115023 C126.376462,1.0115023 129.81999,5.73131797 129.81999,11.6120553 C129.81999,11.8083687 129.81999,12.0249585 129.805075,12.3060645 C129.794635,12.5018249 129.630951,12.6566636 129.432404,12.6566636 L113.738073,12.6566636 C114.168538,16.8736221 117.298865,19.3110415 120.859471,19.3110415 L120.859471,19.3110415 Z" id="Fill-30"></path>
                            <polygon id="Fill-80" opacity="0.6" points="6.69755153 22.0679816 6.46488826 22.0679816 0.102442682 0.0497327189 0.14867705 0.0497327189"></polygon>
                            <polygon id="Fill-82" opacity="0.2" points="29.6156293 21.2495115 31.3304024 15.3466544 31.1439735 15.3466544 29.4292004 21.2653641"></polygon>
                            <polygon id="Fill-84" opacity="0.2" points="34.1357845 5.60731797 35.6898558 0.231465438 35.5034269 0.231465438 33.9493556 5.61727189"></polygon>
                            <polygon id="Fill-86" opacity="0.2" points="31.9589474 13.1347281 33.0450822 9.44809217 32.8586533 9.44809217 31.7725185 13.1347281"></polygon>
                        </g>
                    </g>
                </g>
            </g>
        </g>
    </g>
</svg>